Patient4_TMGait_0pt3_01_right_27_GRF.mot
version=1
nRows=38
nColumns=19
inDegrees=no
endheader
time	F1x	F1y	F1z	M1x	M1y	M1z	F2x	F2y	F2z	M2x	M2y	M2z	EC1x	EC1y	EC1z	EC2x	EC2y	EC2z
49.9	-11.1353	894.6569	65.0889	-311.8741	-62.941	843.8419	-8.0104	3.9359	-1.2406	1.9768	3.8647	-0.036361	-0.0592	0.0182	-0.0073	-0.0462	0.0165	0.9585
49.9196	-10.2226	900.5284	66.8747	-313.721	-63.7109	846.5532	-5.518	3.4996	-0.88833	1.6489	2.7428	0.8557	-0.0592	0.0182	-0.0073	-0.0462	0.0165	0.9585
49.9393	-8.9041	902.1752	68.2965	-314.0715	-63.9235	844.7566	-3.3903	3.1551	-0.59834	1.3801	1.7905	1.6515	-0.0592	0.0182	-0.0073	-0.0462	0.0165	0.9585
49.9589	-7.1954	897.8215	69.0449	-312.3214	-63.3292	836.9699	-1.7639	2.9184	-0.38789	1.1862	1.0677	2.2874	-0.0592	0.0182	-0.0073	-0.0462	0.0165	0.9585
49.9786	-5.1769	886.7339	68.9497	-308.2284	-61.8326	822.6937	-0.64288	2.7813	-0.25611	1.0632	0.57441	2.7466	-0.0592	0.0182	-0.0073	-0.0462	0.0165	0.9585
49.9982	-2.9588	869.2787	67.9805	-301.9336	-59.4756	802.409	0.041174	2.7084	-0.19369	0.99274	0.28263	3.0289	-0.0592	0.0182	-0.0073	-0.0462	0.0165	0.9585
50.0179	-0.62979	846.7505	66.2091	-293.9069	-56.3824	777.379	0.3875	2.6387	-0.18666	0.94556	0.15065	3.1331	-0.0592	0.0182	-0.0073	-0.0462	0.0165	0.9585
50.0375	1.7862	821.1151	63.755	-284.86	-52.6891	749.4001	0.49543	2.4961	-0.21925	0.88658	0.13435	3.0435	-0.0592	0.0182	-0.0073	-0.0462	0.0165	0.9585
50.0571	4.3452	794.7046	60.7525	-275.6353	-48.5063	720.5281	0.45061	2.1936	-0.27718	0.77691	0.19369	2.7224	-0.0592	0.0182	-0.0073	-0.0462	0.0165	0.9585
50.0768	7.1624	769.8655	57.351	-267.0748	-43.9286	692.7846	0.32371	1.6362	-0.34517	0.57571	0.29206	2.1141	-0.0592	0.0182	-0.0073	-0.0462	0.0165	0.9585
50.0964	10.4057	748.6445	53.7196	-259.9008	-39.044	667.8996	0.1741	0.73196	-0.40424	0.24357	0.39435	1.1537	-0.0592	0.0182	-0.0073	-0.0462	0.0165	0.9585
50.1161	14.2696	732.5861	50.0578	-254.6376	-33.9483	647.1647	0.052115	-0.58046	-0.43314	-0.24818	0.46452	-0.20395	-0.0592	0.0182	-0.0073	-0.0462	0.0165	0.9585
50.1357	18.888	722.5579	46.6006	-251.5467	-28.7832	631.3309	0.0023817	-2.3049	-0.41212	-0.9045	0.46456	-1.9546	-0.0592	0.0182	-0.0073	-0.0462	0.0165	0.9585
50.1554	24.2316	718.5788	43.6256	-250.5675	-23.7808	620.4999	0.066319	-4.3453	-0.32069	-1.6888	0.35595	-3.9997	-0.0592	0.0182	-0.0073	-0.0462	0.0165	0.9585
50.175	30.062	719.7903	41.423	-251.3186	-19.261	614.1159	0.28689	-6.4369	-0.13784	-2.4966	0.098817	-6.0819	-0.0592	0.0182	-0.0073	-0.0462	0.0165	0.9585
50.1946	35.9836	724.6483	40.1943	-253.1856	-15.5352	611.1028	0.70427	-8.0696	0.15167	-3.1269	-0.34025	-7.7079	-0.0592	0.0182	-0.0073	-0.0462	0.0165	0.9585
50.2143	41.5378	731.2051	39.9824	-255.4396	-12.8154	610.0553	1.3464	-8.415	0.55419	-3.2557	-0.97916	-8.0744	-0.0592	0.0182	-0.0073	-0.0462	0.0165	0.9585
50.2339	46.3041	737.3913	40.6617	-257.3501	-11.1684	609.4389	2.2115	-6.2736	1.0597	-2.4168	-1.8015	-6.0072	-0.0592	0.0182	-0.0073	-0.0462	0.0165	0.9585
50.2536	50.0002	741.3249	41.9743	-258.2923	-10.5068	607.8111	3.2443	-0.064191	1.6257	0.0020283	-2.7353	0.049851	-0.0592	0.0182	-0.0073	-0.0462	0.0165	0.9585
50.2732	52.5409	741.5067	43.5962	-257.8031	-10.6171	603.9605	4.3069	12.0905	2.1602	4.7254	-3.6299	11.9441	-0.0592	0.0182	-0.0073	-0.0462	0.0165	0.9585
50.2929	54.0159	736.8155	45.1994	-255.5644	-11.2159	596.9104	5.1398	32.1156	2.5035	12.4951	-4.2223	31.5719	-0.0592	0.0182	-0.0073	-0.0462	0.0165	0.9585
50.3125	54.5896	726.3616	46.4742	-251.3352	-11.9993	585.8377	5.3275	61.5259	2.4125	23.8903	-4.11	60.4369	-0.0592	0.0182	-0.0073	-0.0462	0.0165	0.9585
50.3321	54.4119	709.3089	47.1472	-244.8787	-12.6916	569.9722	4.2573	100.7293	1.5725	39.0591	-2.7491	98.9649	-0.0592	0.0182	-0.0073	-0.0462	0.0165	0.9585
50.3518	53.5593	684.9135	47.008	-235.9697	-13.0901	548.6537	1.3652	148.2951	-0.30235	57.4344	0.3541	145.7876	-0.0592	0.0182	-0.0073	-0.0462	0.0165	0.9585
50.3714	52.0279	652.8786	45.9551	-224.5186	-13.1016	521.6166	-3.0949	200.5749	-3.3694	77.5806	5.257	197.3298	-0.0592	0.0182	-0.0073	-0.0462	0.0165	0.9585
50.3911	49.8065	613.8037	44.0338	-210.7323	-12.7468	489.3147	-8.1098	251.8739	-7.5222	97.2773	11.4529	247.9185	-0.0592	0.0182	-0.0073	-0.0462	0.0165	0.9585
50.4107	46.9642	569.4593	41.4437	-195.2113	-12.1353	453.1298	-12.6804	297.2794	-12.0329	114.639	17.8129	292.6619	-0.0592	0.0182	-0.0073	-0.0462	0.0165	0.9585
50.4304	43.67	522.5134	38.5023	-178.8567	-11.4298	415.1454	-16.3957	335.0572	-16.0393	129.0181	23.3242	329.9184	-0.0592	0.0182	-0.0073	-0.0462	0.0165	0.9585
50.45	40.1784	475.7944	35.504	-162.6267	-10.7443	377.5507	-19.3106	365.9154	-18.9948	140.6959	27.4873	360.5344	-0.0592	0.0182	-0.0073	-0.0462	0.0165	0.9585
50.4696	36.7592	431.5768	32.6045	-147.2962	-10.0865	342.0872	-21.7289	391.7017	-20.7923	150.3657	30.3374	386.5035	-0.0592	0.0182	-0.0073	-0.0462	0.0165	0.9585
50.4893	33.6216	391.1549	29.8487	-133.3054	-9.4046	309.727	-24.0525	414.4588	-21.7144	158.7687	32.3199	409.996	-0.0592	0.0182	-0.0073	-0.0462	0.0165	0.9585
50.5089	30.8872	354.8808	27.254	-120.7684	-8.6631	280.7094	-26.6201	435.7273	-22.2728	166.4463	34.0636	432.6103	-0.0592	0.0182	-0.0073	-0.0462	0.0165	0.9585
50.5286	28.5786	322.5192	24.8308	-109.5956	-7.8649	254.8349	-29.5631	456.2709	-22.9626	173.6595	36.0885	455.0431	-0.0592	0.0182	-0.0073	-0.0462	0.0165	0.9585
50.5482	26.6325	293.5333	22.5732	-99.5934	-7.0303	231.6813	-32.751	476.1939	-24.0511	180.4536	38.5869	477.2083	-0.0592	0.0182	-0.0073	-0.0462	0.0165	0.9585
50.5679	24.9491	267.1717	20.4676	-90.497	-6.1898	210.652	-35.8804	495.2955	-25.5473	186.7928	41.4335	498.6357	-0.0592	0.0182	-0.0073	-0.0462	0.0165	0.9585
50.5875	23.4141	242.5109	18.5162	-81.9879	-5.396	191.0152	-38.608	513.438	-27.3524	192.683	44.3897	518.8962	-0.0592	0.0182	-0.0073	-0.0462	0.0165	0.9585
50.6071	21.8707	218.6269	16.7312	-73.7525	-4.7184	172.0463	-40.6546	530.7749	-29.3839	198.2406	47.2713	537.8719	-0.0592	0.0182	-0.0073	-0.0462	0.0165	0.9585
50.6268	20.1431	194.8207	15.1155	-65.5592	-4.2213	153.1945	-41.85	547.819	-31.6022	203.7118	49.9873	555.8419	-0.0592	0.0182	-0.0073	-0.0462	0.0165	0.9585
